<svg width="314" height="60" viewBox="0 0 314 60" fill="none" xmlns="http://www.w3.org/2000/svg">
<path d="M20 40H40V60H36C27.1634 60 20 52.8366 20 44V40Z" fill="#FB5607"/>
<rect x="20" y="20" width="20" height="20" fill="#FB5607"/>
<rect x="20" width="20" height="20" fill="#FB5607"/>
<path d="M60 40H80V44C80 52.8366 72.8366 60 64 60H60V40Z" fill="#FB5607"/>
<path d="M214 40H234V60H230C221.163 60 214 52.8366 214 44V40Z" fill="#FB5607"/>
<path d="M100 40H120V44C120 52.8366 112.837 60 104 60H100V40Z" fill="#FB5607"/>
<path d="M157 40H177V44C177 52.8366 169.837 60 161 60H157V40Z" fill="#FB5607"/>
<path d="M274 40H294V44C294 52.8366 286.837 60 278 60H274V40Z" fill="#FB5607"/>
<path d="M100 20H120V40H100V20Z" fill="#FB5607"/>
<path d="M157 20H177V40H157V20Z" fill="#FB5607"/>
<path d="M274 20H294V40H274V20Z" fill="#FB5607"/>
<path d="M120 20H130C135.523 20 140 24.4772 140 30C140 35.5228 135.523 40 130 40H120V20Z" fill="#FB5607"/>
<path d="M177 20H187C192.523 20 197 24.4772 197 30C197 35.5228 192.523 40 187 40H177V20Z" fill="#FB5607"/>
<path d="M294 20H314V24C314 32.8366 306.837 40 298 40H294V20Z" fill="#FB5607"/>
<path d="M60 36C60 27.1634 67.1634 20 76 20H80V40H60V36Z" fill="#FB5607"/>
<path d="M214 36C214 27.1634 221.163 20 230 20H234V40H214V36Z" fill="#FB5607"/>
<path d="M234 20H238C246.837 20 254 27.1634 254 36V40H234V20Z" fill="#FB5607"/>
<path d="M0 16C0 7.16344 7.16344 0 16 0H20V20H0V16Z" fill="#FB5607"/>
<path d="M40 0H60V4C60 12.8366 52.8366 20 44 20H40V0Z" fill="#FB5607"/>
</svg>
